<svg xmlns="http://www.w3.org/2000/svg" viewBox="0 0 560 362" width="560" height="362"><g transform="translate(133.80 24.00) scale(1.7000) translate(-12.0 -30.0)"><path d="M60.0 92 A52 50 0 0 1 164.0 92" fill="none" stroke="#F6F1E8" stroke-width="2.4" stroke-linecap="round" stroke-linejoin="round"/><path d="M56 92 L168 92" fill="none" stroke="#F6F1E8" stroke-width="2.4" stroke-linecap="round" stroke-linejoin="round"/><path d="M63.5 74.0 Q112 69.0 160.5 74.0" fill="none" stroke="#F6F1E8" stroke-width="1.92" stroke-linecap="round" stroke-linejoin="round"/><path d="M74.9 57.0 Q112 53.0 149.1 57.0" fill="none" stroke="#F6F1E8" stroke-width="1.92" stroke-linecap="round" stroke-linejoin="round"/><path d="M80.0 92 Q81.0 70.1 87.0 48.1" fill="none" stroke="#F6F1E8" stroke-width="1.92" stroke-linecap="round" stroke-linejoin="round"/><path d="M100.0 92 Q100.4 67.4 102.6 42.8" fill="none" stroke="#F6F1E8" stroke-width="1.92" stroke-linecap="round" stroke-linejoin="round"/><path d="M124.0 92 Q123.6 67.4 121.4 42.8" fill="none" stroke="#F6F1E8" stroke-width="1.92" stroke-linecap="round" stroke-linejoin="round"/><path d="M144.0 92 Q143.0 70.1 137.0 48.1" fill="none" stroke="#F6F1E8" stroke-width="1.92" stroke-linecap="round" stroke-linejoin="round"/><path d="M66 71 C56 69 50 62 48 54 C46 46 40 42 33 43 C26 44 21 49 22 54 C23 58 28 60 34 59 C40 58 42 64 44 72 C47 82 54 88 62 88" fill="none" stroke="#F6F1E8" stroke-width="2.4" stroke-linecap="round" stroke-linejoin="round"/><path d="M73 92 C66 101 63 110 69 112.5 C75 115 81 106 86 92" fill="none" stroke="#F6F1E8" stroke-width="2.4" stroke-linecap="round" stroke-linejoin="round"/><path d="M139 92 C141 104 147 113 154 111 C161 109 158 99 152 91" fill="none" stroke="#F6F1E8" stroke-width="2.4" stroke-linecap="round" stroke-linejoin="round"/><path d="M163 87 C171 88 176 84 174 79 C172 75 167 77 168 81" fill="none" stroke="#F6F1E8" stroke-width="2.4" stroke-linecap="round" stroke-linejoin="round"/><circle cx="32" cy="50.5" r="1.80" fill="#F6F1E8"/></g><path d="M77.46000000000001 228.66171428571428Q71.01200000000001 228.66171428571428 67.37200000000001 232.24971428571428Q63.73200000000001 235.83771428571427 61.96400000000001 243.74171428571427Q61.860000000000014 243.94971428571426 61.28800000000001 243.94971428571426Q60.71600000000001 243.94971428571426 60.71600000000001 243.63771428571428Q60.92400000000001 242.28571428571428 61.18400000000001 239.78971428571427Q61.44400000000001 237.29371428571426 61.652000000000015 234.38171428571428Q61.860000000000014 231.46971428571428 62.01600000000001 228.7657142857143Q62.17200000000001 226.0617142857143 62.17200000000001 224.29371428571426Q62.17200000000001 223.77371428571428 62.79600000000001 223.77371428571428Q63.42000000000001 223.77371428571428 63.42000000000001 224.29371428571426Q63.42000000000001 225.33371428571428 64.46000000000001 225.80171428571427Q65.50000000000001 226.26971428571426 66.852 226.42571428571426Q68.20400000000001 226.58171428571427 69.14000000000001 226.58171428571427Q78.084 226.89371428571428 90.04400000000001 226.89371428571428Q97.32400000000001 226.89371428571428 101.69200000000001 226.73771428571428Q106.06 226.58171428571427 110.11600000000001 226.58171428571427Q113.65200000000002 226.58171428571427 115.57600000000001 226.11371428571428Q117.5 225.6457142857143 118.02000000000001 223.98171428571428Q118.12400000000001 223.56571428571428 118.696 223.56571428571428Q119.268 223.56571428571428 119.268 223.98171428571428Q119.06 225.54171428571428 118.904 228.34971428571427Q118.748 231.15771428571426 118.59200000000001 234.17371428571425Q118.436 237.18971428571427 118.33200000000001 239.78971428571427Q118.22800000000001 242.38971428571426 118.22800000000001 243.63771428571428Q118.22800000000001 243.94971428571426 117.656 243.94971428571426Q117.084 243.94971428571426 117.084 243.63771428571428Q116.35600000000001 235.5257142857143 112.924 232.09371428571427Q109.492 228.66171428571428 102.732 228.66171428571428Q99.09200000000001 228.66171428571428 97.272 229.12971428571427Q95.452 229.5977142857143 94.88 230.94971428571426Q94.308 232.30171428571427 94.308 235.21371428571427V283.1577142857143Q94.308 286.17371428571425 94.98400000000001 287.73371428571426Q95.66000000000001 289.29371428571426 97.68800000000002 289.81371428571424Q99.71600000000001 290.3337142857143 103.98000000000002 290.3337142857143Q104.18800000000002 290.3337142857143 104.18800000000002 290.95771428571425Q104.18800000000002 291.58171428571427 103.98000000000002 291.58171428571427Q101.17200000000001 291.58171428571427 97.68800000000002 291.4777142857142Q94.20400000000001 291.37371428571424 90.04400000000001 291.37371428571424Q86.09200000000001 291.37371428571424 82.608 291.4777142857142Q79.12400000000001 291.58171428571427 76.21200000000002 291.58171428571427Q75.9 291.58171428571427 75.9 290.95771428571425Q75.9 290.3337142857143 76.21200000000002 290.3337142857143Q80.268 290.3337142857143 82.4 289.81371428571424Q84.53200000000001 289.29371428571426 85.26000000000002 287.73371428571426Q85.98800000000001 286.17371428571425 85.98800000000001 283.1577142857143V235.00571428571428Q85.98800000000001 232.19771428571426 85.364 230.79371428571426Q84.74000000000001 229.38971428571426 82.86800000000001 229.0257142857143Q80.99600000000001 228.66171428571428 77.46000000000001 228.66171428571428ZM188.11599999999999 292.82971428571426Q180.628 292.82971428571426 174.54399999999998 290.1777142857143Q168.45999999999998 287.5257142857143 164.144 282.8457142857143Q159.828 278.1657142857143 157.488 272.08171428571427Q155.148 265.99771428571427 155.148 259.1337142857143Q155.148 250.70971428571426 158.42399999999998 244.36571428571426Q161.7 238.02171428571427 167.108 233.80971428571428Q172.516 229.5977142857143 178.964 227.51771428571428Q185.41199999999998 225.43771428571426 191.756 225.43771428571426Q199.452 225.43771428571426 205.536 228.19371428571426Q211.62 230.94971428571426 215.88400000000001 235.62971428571427Q220.148 240.30971428571428 222.38400000000001 246.23771428571428Q224.62 252.16571428571427 224.62 258.4057142857143Q224.62 265.68571428571425 221.708 271.92571428571426Q218.796 278.1657142857143 213.752 282.8457142857143Q208.708 287.5257142857143 202.10399999999998 290.1777142857143Q195.5 292.82971428571426 188.11599999999999 292.82971428571426ZM191.756 290.54171428571425Q198.308 290.54171428571425 203.664 287.16171428571425Q209.01999999999998 283.78171428571426 212.088 277.28171428571426Q215.156 270.78171428571426 215.156 261.31771428571426Q215.156 251.64571428571426 211.776 244.10571428571427Q208.396 236.56571428571428 202.20799999999997 232.24971428571428Q196.01999999999998 227.93371428571427 187.492 227.93371428571427Q176.572 227.93371428571427 170.59199999999998 235.31771428571426Q164.612 242.70171428571427 164.612 255.49371428571428Q164.612 262.87771428571426 166.536 269.2737142857143Q168.45999999999998 275.6697142857143 172.09999999999997 280.4537142857143Q175.73999999999998 285.2377142857143 180.73199999999997 287.88971428571426Q185.724 290.54171428571425 191.756 290.54171428571425ZM313.54 291.58171428571427Q311.87600000000003 291.58171428571427 308.08000000000004 287.57771428571425Q304.28400000000005 283.5737142857143 298.98 276.1377142857143Q293.67600000000004 268.7017142857143 287.02000000000004 258.4057142857143L293.98800000000006 256.22171428571426Q302.72400000000005 268.80571428571426 308.80800000000005 276.29371428571426Q314.89200000000005 283.78171428571426 319.572 287.05771428571427Q324.252 290.3337142857143 328.516 290.3337142857143Q328.82800000000003 290.3337142857143 328.82800000000003 290.95771428571425Q328.82800000000003 291.58171428571427 328.516 291.58171428571427Q322.692 291.58171428571427 319.0 291.58171428571427Q315.30800000000005 291.58171428571427 313.54 291.58171428571427ZM288.58000000000004 226.26971428571426Q297.31600000000003 226.26971428571426 301.944 229.96171428571427Q306.572 233.65371428571427 306.572 239.78971428571427Q306.572 245.61371428571428 303.244 250.18971428571427Q299.91600000000005 254.76571428571427 294.56000000000006 257.36571428571426Q289.204 259.9657142857143 283.06800000000004 259.9657142857143Q281.82000000000005 259.9657142857143 280.4680000000001 259.91371428571426Q279.11600000000004 259.86171428571424 277.97200000000004 259.75771428571426V283.1577142857143Q277.97200000000004 286.17371428571425 278.54400000000004 287.73371428571426Q279.11600000000004 289.29371428571426 280.93600000000004 289.81371428571424Q282.75600000000003 290.3337142857143 286.396 290.3337142857143Q286.708 290.3337142857143 286.708 290.95771428571425Q286.708 291.58171428571427 286.396 291.58171428571427Q283.79600000000005 291.58171428571427 280.67600000000004 291.4777142857142Q277.55600000000004 291.37371428571424 273.812 291.37371428571424Q270.276 291.37371428571424 267.052 291.4777142857142Q263.82800000000003 291.58171428571427 261.228 291.58171428571427Q260.91600000000005 291.58171428571427 260.91600000000005 290.95771428571425Q260.91600000000005 290.3337142857143 261.228 290.3337142857143Q264.764 290.3337142857143 266.58400000000006 289.81371428571424Q268.40400000000005 289.29371428571426 269.08000000000004 287.73371428571426Q269.75600000000003 286.17371428571425 269.75600000000003 283.1577142857143V235.00571428571428Q269.75600000000003 231.98971428571429 269.13200000000006 230.48171428571428Q268.50800000000004 228.97371428571427 266.74 228.40171428571426Q264.97200000000004 227.82971428571426 261.33200000000005 227.82971428571426Q261.124 227.82971428571426 261.124 227.20571428571427Q261.124 226.58171428571427 261.33200000000005 226.58171428571427Q263.932 226.58171428571427 267.10400000000004 226.73771428571428Q270.276 226.89371428571428 273.812 226.89371428571428Q277.14000000000004 226.89371428571428 281.30000000000007 226.58171428571427Q285.46000000000004 226.26971428571426 288.58000000000004 226.26971428571426ZM298.04400000000004 243.11771428571427Q298.04400000000004 237.29371428571426 296.48400000000004 234.01771428571425Q294.92400000000004 230.74171428571427 292.064 229.38971428571426Q289.204 228.0377142857143 285.35600000000005 228.0377142857143Q281.40400000000005 228.0377142857143 279.68800000000005 229.44171428571428Q277.97200000000004 230.84571428571428 277.97200000000004 235.21371428571427V257.1577142857143Q279.42800000000005 257.2617142857143 281.144 257.36571428571426Q282.86 257.46971428571425 284.108 257.46971428571425Q291.80400000000003 257.46971428571425 294.92400000000004 253.93371428571425Q298.04400000000004 250.39771428571427 298.04400000000004 243.11771428571427ZM375.31600000000003 228.66171428571428Q368.86800000000005 228.66171428571428 365.22800000000007 232.24971428571428Q361.5880000000001 235.83771428571427 359.82000000000005 243.74171428571427Q359.71600000000007 243.94971428571426 359.14400000000006 243.94971428571426Q358.57200000000006 243.94971428571426 358.57200000000006 243.63771428571428Q358.7800000000001 242.28571428571428 359.0400000000001 239.78971428571427Q359.30000000000007 237.29371428571426 359.50800000000004 234.38171428571428Q359.71600000000007 231.46971428571428 359.87200000000007 228.7657142857143Q360.0280000000001 226.0617142857143 360.0280000000001 224.29371428571426Q360.0280000000001 223.77371428571428 360.65200000000004 223.77371428571428Q361.27600000000007 223.77371428571428 361.27600000000007 224.29371428571426Q361.27600000000007 225.33371428571428 362.31600000000003 225.80171428571427Q363.35600000000005 226.26971428571426 364.7080000000001 226.42571428571426Q366.06000000000006 226.58171428571427 366.99600000000004 226.58171428571427Q375.94000000000005 226.89371428571428 387.9000000000001 226.89371428571428Q395.18000000000006 226.89371428571428 399.54800000000006 226.73771428571428Q403.91600000000005 226.58171428571427 407.97200000000004 226.58171428571427Q411.50800000000004 226.58171428571427 413.432 226.11371428571428Q415.35600000000005 225.6457142857143 415.8760000000001 223.98171428571428Q415.9800000000001 223.56571428571428 416.5520000000001 223.56571428571428Q417.1240000000001 223.56571428571428 417.1240000000001 223.98171428571428Q416.91600000000005 225.54171428571428 416.76000000000005 228.34971428571427Q416.60400000000004 231.15771428571426 416.44800000000004 234.17371428571425Q416.29200000000003 237.18971428571427 416.18800000000005 239.78971428571427Q416.08400000000006 242.38971428571426 416.08400000000006 243.63771428571428Q416.08400000000006 243.94971428571426 415.51200000000006 243.94971428571426Q414.94000000000005 243.94971428571426 414.94000000000005 243.63771428571428Q414.21200000000005 235.5257142857143 410.7800000000001 232.09371428571427Q407.34800000000007 228.66171428571428 400.5880000000001 228.66171428571428Q396.94800000000004 228.66171428571428 395.12800000000004 229.12971428571427Q393.30800000000005 229.5977142857143 392.73600000000005 230.94971428571426Q392.16400000000004 232.30171428571427 392.16400000000004 235.21371428571427V283.1577142857143Q392.16400000000004 286.17371428571425 392.84000000000003 287.73371428571426Q393.5160000000001 289.29371428571426 395.5440000000001 289.81371428571424Q397.57200000000006 290.3337142857143 401.83600000000007 290.3337142857143Q402.04400000000004 290.3337142857143 402.04400000000004 290.95771428571425Q402.04400000000004 291.58171428571427 401.83600000000007 291.58171428571427Q399.0280000000001 291.58171428571427 395.5440000000001 291.4777142857142Q392.06000000000006 291.37371428571424 387.9000000000001 291.37371428571424Q383.94800000000004 291.37371428571424 380.46400000000006 291.4777142857142Q376.9800000000001 291.58171428571427 374.06800000000004 291.58171428571427Q373.7560000000001 291.58171428571427 373.7560000000001 290.95771428571425Q373.7560000000001 290.3337142857143 374.06800000000004 290.3337142857143Q378.1240000000001 290.3337142857143 380.2560000000001 289.81371428571424Q382.38800000000003 289.29371428571426 383.11600000000004 287.73371428571426Q383.84400000000005 286.17371428571425 383.84400000000005 283.1577142857143V235.00571428571428Q383.84400000000005 232.19771428571426 383.22 230.79371428571426Q382.59600000000006 229.38971428571426 380.72400000000005 229.0257142857143Q378.8520000000001 228.66171428571428 375.31600000000003 228.66171428571428ZM496.6840000000001 291.58171428571427H452.38000000000005Q452.0680000000001 291.58171428571427 452.0680000000001 290.95771428571425Q452.0680000000001 290.3337142857143 452.38000000000005 290.3337142857143Q455.91600000000005 290.3337142857143 457.7360000000001 289.81371428571424Q459.5560000000001 289.29371428571426 460.18000000000006 287.73371428571426Q460.8040000000001 286.17371428571425 460.8040000000001 283.1577142857143V235.00571428571428Q460.8040000000001 231.98971428571429 460.18000000000006 230.48171428571428Q459.5560000000001 228.97371428571427 457.7360000000001 228.40171428571426Q455.91600000000005 227.82971428571426 452.38000000000005 227.82971428571426Q452.0680000000001 227.82971428571426 452.0680000000001 227.20571428571427Q452.0680000000001 226.58171428571427 452.38000000000005 226.58171428571427H494.81200000000007Q495.8520000000001 226.58171428571427 495.8520000000001 227.51771428571428L496.06000000000006 240.62171428571426Q496.06000000000006 240.93371428571427 495.48800000000006 240.98571428571427Q494.91600000000005 241.0377142857143 494.81200000000007 240.72571428571428Q494.08400000000006 235.00571428571428 490.7560000000001 232.04171428571428Q487.42800000000005 229.07771428571428 482.0200000000001 229.07771428571428H476.71600000000007Q473.59600000000006 229.07771428571428 471.9320000000001 229.5977142857143Q470.2680000000001 230.11771428571427 469.6440000000001 231.52171428571427Q469.0200000000001 232.92571428571426 469.0200000000001 235.42171428571427V282.7417142857143Q469.0200000000001 285.2377142857143 469.5920000000001 286.6417142857143Q470.1640000000001 288.04571428571427 471.72400000000005 288.61771428571427Q473.28400000000005 289.1897142857143 476.0920000000001 289.1897142857143H482.9560000000001Q488.88400000000007 289.1897142857143 492.7320000000001 285.7057142857143Q496.58000000000004 282.22171428571426 498.03600000000006 275.7737142857143Q498.03600000000006 275.46171428571427 498.6600000000001 275.5657142857143Q499.28400000000005 275.6697142857143 499.28400000000005 275.98171428571425Q498.86800000000005 278.7897142857143 498.55600000000004 282.7417142857143Q498.2440000000001 286.6937142857143 498.2440000000001 290.02171428571427Q498.2440000000001 291.58171428571427 496.6840000000001 291.58171428571427ZM490.86000000000007 267.66171428571425Q490.86000000000007 263.1897142857143 488.31200000000007 261.05771428571427Q485.76400000000007 258.92571428571426 480.1480000000001 258.92571428571426H465.0680000000001V256.53371428571427H480.4600000000001Q485.76400000000007 256.53371428571427 488.2600000000001 254.71371428571427Q490.7560000000001 252.89371428571428 490.7560000000001 249.04571428571427Q490.7560000000001 248.83771428571427 491.3280000000001 248.83771428571427Q491.9000000000001 248.83771428571427 491.9000000000001 249.04571428571427Q491.9000000000001 252.26971428571426 491.84800000000007 254.03771428571426Q491.79600000000005 255.80571428571426 491.79600000000005 257.78171428571426Q491.79600000000005 260.17371428571425 491.95200000000006 262.56571428571425Q492.10800000000006 264.95771428571425 492.10800000000006 267.66171428571425Q492.10800000000006 267.8697142857143 491.48400000000004 267.8697142857143Q490.86000000000007 267.8697142857143 490.86000000000007 267.66171428571425ZM468.3960000000001 220.96571428571428Q467.9800000000001 221.17371428571425 467.77200000000005 220.60171428571425Q467.5640000000001 220.02971428571428 467.8760000000001 219.92571428571426Q472.34800000000007 217.42971428571428 476.0920000000001 214.77771428571427Q479.83600000000007 212.12571428571425 483.58000000000004 209.73371428571426Q483.89200000000005 209.42171428571427 485.45200000000006 209.83771428571427Q487.01200000000006 210.25371428571427 488.67600000000004 210.92971428571428Q490.3400000000001 211.60571428571427 491.27600000000007 212.22971428571427Q492.21200000000005 212.85371428571426 491.4840000000001 212.95771428571427Q484.5160000000001 214.6217142857143 479.10800000000006 216.5977142857143Q473.70000000000005 218.5737142857143 468.3960000000001 220.96571428571428Z" fill="#F6F1E8"/><path d="M258.0 311.6 h44" stroke="#C5A66A" stroke-width="1.4"/><path d="M126.85599999999995 332.1417142857143H134.53599999999994V330.86171428571424H126.85599999999995ZM133.62399999999997 326.3817142857143V337.58171428571427H134.98399999999995V326.3817142857143ZM126.10399999999996 326.3817142857143V337.58171428571427H127.46399999999996V326.3817142857143ZM145.33599999999996 334.22171428571426H151.25599999999994L150.77599999999995 332.9417142857143H145.81599999999995ZM148.26399999999995 328.90971428571424 150.18399999999994 333.42171428571424 150.31199999999995 333.7417142857143 151.94399999999996 337.58171428571427H153.46399999999994L148.26399999999995 325.8217142857143L143.06399999999996 337.58171428571427H144.58399999999995L146.24799999999996 333.6457142857143L146.37599999999995 333.3577142857143ZM161.54399999999995 326.3817142857143V337.58171428571427H162.90399999999994V326.3817142857143ZM174.18399999999994 332.0617142857143 178.02399999999994 337.58171428571427H179.70399999999995L175.70399999999995 332.0617142857143ZM172.18399999999994 326.3817142857143V337.58171428571427H173.54399999999993V326.3817142857143ZM172.93599999999995 327.58171428571427H175.22399999999993Q175.94399999999993 327.58171428571427 176.49599999999992 327.83771428571424Q177.04799999999994 328.09371428571427 177.35999999999996 328.57371428571423Q177.67199999999994 329.05371428571425 177.67199999999994 329.7417142857143Q177.67199999999994 330.4297142857143 177.35999999999996 330.90971428571424Q177.04799999999994 331.38971428571426 176.49599999999992 331.64571428571423Q175.94399999999993 331.90171428571426 175.22399999999993 331.90171428571426H172.93599999999995V333.10171428571425H175.22399999999993Q176.31199999999993 333.10171428571425 177.16799999999995 332.69371428571424Q178.02399999999994 332.2857142857143 178.52799999999993 331.5257142857143Q179.03199999999993 330.7657142857143 179.03199999999993 329.7417142857143Q179.03199999999993 328.7017142857143 178.52799999999993 327.94971428571426Q178.02399999999994 327.19771428571426 177.16799999999995 326.78971428571424Q176.31199999999993 326.3817142857143 175.22399999999993 326.3817142857143H172.93599999999995ZM199.79999999999995 334.1897142857143 198.71199999999996 334.92571428571426Q199.07999999999996 335.66171428571425 199.66399999999996 336.3097142857142Q200.24799999999996 336.95771428571425 201.02399999999994 337.3497142857143Q201.79999999999995 337.7417142857143 202.71199999999996 337.7417142857143Q203.38399999999996 337.7417142857143 203.99999999999994 337.5177142857143Q204.61599999999996 337.29371428571426 205.10399999999996 336.87771428571426Q205.59199999999996 336.46171428571427 205.87199999999996 335.8697142857143Q206.15199999999996 335.2777142857143 206.15199999999996 334.54171428571425Q206.15199999999996 333.7737142857143 205.87999999999994 333.22171428571426Q205.60799999999995 332.6697142857143 205.18399999999997 332.2777142857143Q204.75999999999996 331.88571428571424 204.26399999999995 331.6297142857143Q203.76799999999994 331.37371428571424 203.31999999999996 331.2137142857143Q202.34399999999997 330.87771428571426 201.77599999999995 330.53371428571427Q201.20799999999997 330.1897142857143 200.96799999999996 329.7977142857143Q200.72799999999995 329.4057142857143 200.72799999999995 328.9417142857143Q200.72799999999995 328.39771428571424 201.14399999999995 327.95771428571425Q201.55999999999995 327.51771428571425 202.47199999999995 327.51771428571425Q203.12799999999996 327.51771428571425 203.58399999999995 327.7737142857143Q204.03999999999996 328.02971428571425 204.35999999999996 328.4297142857142Q204.67999999999995 328.82971428571426 204.88799999999995 329.24571428571426L206.05599999999995 328.5737142857143Q205.78399999999996 327.98171428571425 205.30399999999997 327.44571428571425Q204.82399999999996 326.90971428571424 204.14399999999995 326.56571428571425Q203.46399999999997 326.22171428571426 202.55199999999996 326.22171428571426Q201.60799999999995 326.22171428571426 200.87199999999996 326.59771428571423Q200.13599999999997 326.97371428571427 199.71999999999997 327.6297142857143Q199.30399999999995 328.2857142857143 199.30399999999995 329.11771428571427Q199.30399999999995 329.88571428571424 199.59999999999997 330.41371428571426Q199.89599999999996 330.9417142857143 200.35999999999996 331.3017142857143Q200.82399999999996 331.66171428571425 201.33599999999996 331.8937142857143Q201.84799999999996 332.12571428571425 202.26399999999995 332.26971428571426Q202.90399999999997 332.49371428571425 203.47199999999998 332.7737142857143Q204.03999999999996 333.05371428571425 204.39199999999997 333.50171428571423Q204.74399999999997 333.94971428571426 204.74399999999997 334.7017142857143Q204.74399999999997 335.46971428571425 204.19999999999996 335.9657142857143Q203.65599999999995 336.46171428571427 202.75999999999996 336.46171428571427Q202.08799999999997 336.46171428571427 201.55999999999995 336.17371428571425Q201.03199999999995 335.88571428571424 200.60799999999995 335.37371428571424Q200.18399999999997 334.86171428571424 199.79999999999995 334.1897142857143ZM213.75199999999995 327.66171428571425H216.63199999999995V337.58171428571427H217.99199999999996V327.66171428571425H220.87199999999996V326.3817142857143H213.75199999999995ZM228.95199999999994 326.3817142857143V333.90171428571426Q228.95199999999994 334.73371428571426 229.21599999999995 335.43771428571426Q229.47999999999996 336.1417142857143 229.98399999999995 336.6537142857143Q230.48799999999994 337.1657142857143 231.19199999999995 337.4537142857143Q231.89599999999996 337.7417142857143 232.75999999999996 337.7417142857143Q233.62399999999997 337.7417142857143 234.32799999999997 337.4537142857143Q235.03199999999995 337.1657142857143 235.53599999999994 336.6537142857143Q236.03999999999996 336.1417142857143 236.30399999999997 335.43771428571426Q236.56799999999996 334.73371428571426 236.56799999999996 333.90171428571426V326.3817142857143H235.20799999999994V333.90171428571426Q235.20799999999994 335.05371428571425 234.58399999999995 335.75771428571426Q233.95999999999995 336.46171428571427 232.75999999999996 336.46171428571427Q231.55999999999995 336.46171428571427 230.93599999999995 335.75771428571426Q230.31199999999995 335.05371428571425 230.31199999999995 333.90171428571426V326.3817142857143ZM245.76799999999994 326.3817142857143V337.58171428571427H247.12799999999993V326.3817142857143ZM249.12799999999993 337.58171428571427Q250.75999999999993 337.58171428571427 252.02399999999994 336.87771428571426Q253.28799999999995 336.17371428571425 254.00799999999995 334.9177142857143Q254.72799999999995 333.66171428571425 254.72799999999995 331.98171428571425Q254.72799999999995 330.3017142857143 254.00799999999995 329.0457142857143Q253.28799999999995 327.7897142857143 252.02399999999994 327.0857142857143Q250.75999999999993 326.3817142857143 249.12799999999993 326.3817142857143H246.51999999999995V327.7417142857143H249.12799999999993Q250.07199999999995 327.7417142857143 250.85599999999994 328.0377142857143Q251.63999999999993 328.3337142857143 252.19999999999993 328.88571428571424Q252.75999999999993 329.43771428571426 253.06399999999994 330.22171428571426Q253.36799999999994 331.00571428571425 253.36799999999994 331.98171428571425Q253.36799999999994 332.95771428571425 253.06399999999994 333.74171428571424Q252.75999999999993 334.5257142857143 252.19999999999993 335.07771428571425Q251.63999999999993 335.6297142857143 250.85599999999994 335.92571428571426Q250.07199999999995 336.22171428571426 249.12799999999993 336.22171428571426H246.51999999999995V337.58171428571427ZM263.36799999999994 326.3817142857143V337.58171428571427H264.72799999999995V326.3817142857143ZM274.808 331.98171428571425Q274.808 330.7177142857143 275.36 329.7257142857143Q275.91200000000003 328.73371428571426 276.872 328.1577142857143Q277.832 327.58171428571427 279.048 327.58171428571427Q280.28000000000003 327.58171428571427 281.232 328.1577142857143Q282.184 328.73371428571426 282.736 329.7257142857143Q283.288 330.7177142857143 283.288 331.98171428571425Q283.288 333.24571428571426 282.736 334.2377142857143Q282.184 335.2297142857143 281.232 335.8057142857143Q280.28000000000003 336.3817142857143 279.048 336.3817142857143Q277.832 336.3817142857143 276.872 335.8057142857143Q275.91200000000003 335.2297142857143 275.36 334.2377142857143Q274.808 333.24571428571426 274.808 331.98171428571425ZM273.368 331.98171428571425Q273.368 333.19771428571426 273.79200000000003 334.2537142857143Q274.216 335.3097142857143 274.98400000000004 336.0857142857143Q275.752 336.86171428571424 276.79200000000003 337.3017142857143Q277.832 337.7417142857143 279.048 337.7417142857143Q280.28000000000003 337.7417142857143 281.312 337.3017142857143Q282.344 336.86171428571424 283.11199999999997 336.0857142857143Q283.88 335.3097142857143 284.304 334.2537142857143Q284.728 333.19771428571426 284.728 331.98171428571425Q284.728 330.7497142857143 284.304 329.7017142857143Q283.88 328.6537142857143 283.11199999999997 327.87771428571426Q282.344 327.10171428571425 281.312 326.66171428571425Q280.28000000000003 326.22171428571426 279.048 326.22171428571426Q277.832 326.22171428571426 276.79200000000003 326.66171428571425Q275.752 327.10171428571425 274.98400000000004 327.87771428571426Q274.216 328.6537142857143 273.79200000000003 329.7017142857143Q273.368 330.7497142857143 273.368 331.98171428571425ZM305.12800000000004 333.7417142857143Q305.12800000000004 334.09371428571427 305.39200000000005 334.3577142857143Q305.65600000000006 334.6217142857143 306.00800000000004 334.6217142857143Q306.37600000000003 334.6217142857143 306.63200000000006 334.3577142857143Q306.88800000000003 334.09371428571427 306.88800000000003 333.7417142857143Q306.88800000000003 333.37371428571424 306.63200000000006 333.1177142857142Q306.37600000000003 332.86171428571424 306.00800000000004 332.86171428571424Q305.65600000000006 332.86171428571424 305.39200000000005 333.1177142857142Q305.12800000000004 333.37371428571424 305.12800000000004 333.7417142857143ZM329.48000000000013 330.0137142857143 333.12800000000016 336.54171428571425 336.7760000000001 330.0137142857143 337.6080000000001 337.58171428571427H338.96800000000013L337.6080000000001 325.8217142857143L333.12800000000016 333.93371428571425L328.64800000000014 325.8217142857143L327.2880000000001 337.58171428571427H328.64800000000014ZM348.40800000000013 331.98171428571425Q348.40800000000013 330.7177142857143 348.96000000000015 329.7257142857143Q349.51200000000017 328.73371428571426 350.47200000000015 328.1577142857143Q351.43200000000013 327.58171428571427 352.64800000000014 327.58171428571427Q353.88000000000017 327.58171428571427 354.83200000000016 328.1577142857143Q355.78400000000016 328.73371428571426 356.3360000000001 329.7257142857143Q356.88800000000015 330.7177142857143 356.88800000000015 331.98171428571425Q356.88800000000015 333.24571428571426 356.3360000000001 334.2377142857143Q355.78400000000016 335.2297142857143 354.83200000000016 335.8057142857143Q353.88000000000017 336.3817142857143 352.64800000000014 336.3817142857143Q351.43200000000013 336.3817142857143 350.47200000000015 335.8057142857143Q349.51200000000017 335.2297142857143 348.96000000000015 334.2377142857143Q348.40800000000013 333.24571428571426 348.40800000000013 331.98171428571425ZM346.96800000000013 331.98171428571425Q346.96800000000013 333.19771428571426 347.39200000000017 334.2537142857143Q347.81600000000014 335.3097142857143 348.5840000000002 336.0857142857143Q349.35200000000015 336.86171428571424 350.39200000000017 337.3017142857143Q351.43200000000013 337.7417142857143 352.64800000000014 337.7417142857143Q353.88000000000017 337.7417142857143 354.91200000000015 337.3017142857143Q355.94400000000013 336.86171428571424 356.7120000000001 336.0857142857143Q357.48000000000013 335.3097142857143 357.9040000000001 334.2537142857143Q358.32800000000015 333.19771428571426 358.32800000000015 331.98171428571425Q358.32800000000015 330.7497142857143 357.9040000000001 329.7017142857143Q357.48000000000013 328.6537142857143 356.7120000000001 327.87771428571426Q355.94400000000013 327.10171428571425 354.91200000000015 326.66171428571425Q353.88000000000017 326.22171428571426 352.64800000000014 326.22171428571426Q351.43200000000013 326.22171428571426 350.39200000000017 326.66171428571425Q349.35200000000015 327.10171428571425 348.5840000000002 327.87771428571426Q347.81600000000014 328.6537142857143 347.39200000000017 329.7017142857143Q346.96800000000013 330.7497142857143 346.96800000000013 331.98171428571425ZM367.3840000000002 334.1897142857143 366.29600000000016 334.92571428571426Q366.66400000000016 335.66171428571425 367.24800000000016 336.3097142857142Q367.83200000000016 336.95771428571425 368.6080000000002 337.3497142857143Q369.3840000000002 337.7417142857143 370.29600000000016 337.7417142857143Q370.96800000000013 337.7417142857143 371.5840000000002 337.5177142857143Q372.20000000000016 337.29371428571426 372.68800000000016 336.87771428571426Q373.17600000000016 336.46171428571427 373.45600000000013 335.8697142857143Q373.73600000000016 335.2777142857143 373.73600000000016 334.54171428571425Q373.73600000000016 333.7737142857143 373.46400000000017 333.22171428571426Q373.1920000000002 332.6697142857143 372.76800000000014 332.2777142857143Q372.34400000000016 331.88571428571424 371.8480000000002 331.6297142857143Q371.35200000000015 331.37371428571424 370.90400000000017 331.2137142857143Q369.92800000000017 330.87771428571426 369.3600000000001 330.53371428571427Q368.79200000000014 330.1897142857143 368.55200000000013 329.7977142857143Q368.3120000000002 329.4057142857143 368.3120000000002 328.9417142857143Q368.3120000000002 328.39771428571424 368.7280000000002 327.95771428571425Q369.1440000000002 327.51771428571425 370.05600000000015 327.51771428571425Q370.71200000000016 327.51771428571425 371.1680000000001 327.7737142857143Q371.62400000000014 328.02971428571425 371.9440000000002 328.4297142857142Q372.2640000000002 328.82971428571426 372.47200000000015 329.24571428571426L373.64000000000016 328.5737142857143Q373.36800000000017 327.98171428571425 372.88800000000015 327.44571428571425Q372.4080000000002 326.90971428571424 371.7280000000002 326.56571428571425Q371.0480000000002 326.22171428571426 370.13600000000014 326.22171428571426Q369.1920000000002 326.22171428571426 368.45600000000013 326.59771428571423Q367.72000000000014 326.97371428571427 367.30400000000014 327.6297142857143Q366.88800000000015 328.2857142857143 366.88800000000015 329.11771428571427Q366.88800000000015 329.88571428571424 367.18400000000014 330.41371428571426Q367.48000000000013 330.9417142857143 367.9440000000002 331.3017142857143Q368.4080000000002 331.66171428571425 368.9200000000002 331.8937142857143Q369.4320000000002 332.12571428571425 369.8480000000002 332.26971428571426Q370.48800000000017 332.49371428571425 371.05600000000015 332.7737142857143Q371.62400000000014 333.05371428571425 371.9760000000001 333.50171428571423Q372.32800000000015 333.94971428571426 372.32800000000015 334.7017142857143Q372.32800000000015 335.46971428571425 371.78400000000016 335.9657142857143Q371.2400000000002 336.46171428571427 370.34400000000016 336.46171428571427Q369.67200000000014 336.46171428571427 369.1440000000001 336.17371428571425Q368.61600000000016 335.88571428571424 368.1920000000001 335.37371428571424Q367.76800000000014 334.86171428571424 367.3840000000002 334.1897142857143ZM383.25600000000014 331.98171428571425Q383.25600000000014 330.6697142857143 383.84000000000015 329.6857142857143Q384.42400000000015 328.7017142857143 385.36800000000017 328.1417142857143Q386.3120000000002 327.58171428571427 387.41600000000017 327.58171428571427Q388.2160000000002 327.58171428571427 388.88000000000017 327.78971428571424Q389.54400000000015 327.99771428571427 390.0880000000002 328.3737142857143Q390.6320000000002 328.7497142857143 391.01600000000013 329.24571428571426V327.4537142857143Q390.3120000000002 326.82971428571426 389.48000000000013 326.52571428571423Q388.64800000000014 326.22171428571426 387.41600000000017 326.22171428571426Q386.24800000000016 326.22171428571426 385.2320000000002 326.64571428571423Q384.2160000000002 327.06971428571427 383.4480000000002 327.8457142857143Q382.6800000000002 328.6217142857143 382.24800000000016 329.6777142857143Q381.81600000000014 330.73371428571426 381.81600000000014 331.98171428571425Q381.81600000000014 333.2297142857143 382.24800000000016 334.2857142857143Q382.6800000000002 335.34171428571426 383.4480000000002 336.11771428571427Q384.2160000000002 336.8937142857143 385.2320000000002 337.31771428571426Q386.24800000000016 337.7417142857143 387.41600000000017 337.7417142857143Q388.64800000000014 337.7417142857143 389.48000000000013 337.43771428571426Q390.3120000000002 337.1337142857143 391.01600000000013 336.50971428571427V334.7177142857143Q390.6320000000002 335.2137142857143 390.0880000000002 335.5897142857143Q389.54400000000015 335.9657142857143 388.88000000000017 336.17371428571425Q388.2160000000002 336.3817142857143 387.41600000000017 336.3817142857143Q386.3120000000002 336.3817142857143 385.36800000000017 335.8217142857143Q384.42400000000015 335.2617142857143 383.84000000000015 334.26971428571426Q383.25600000000014 333.2777142857143 383.25600000000014 331.98171428571425ZM400.93600000000015 331.98171428571425Q400.93600000000015 330.7177142857143 401.48800000000017 329.7257142857143Q402.0400000000002 328.73371428571426 403.00000000000017 328.1577142857143Q403.96000000000015 327.58171428571427 405.17600000000016 327.58171428571427Q406.4080000000002 327.58171428571427 407.3600000000002 328.1577142857143Q408.3120000000002 328.73371428571426 408.86400000000015 329.7257142857143Q409.41600000000017 330.7177142857143 409.41600000000017 331.98171428571425Q409.41600000000017 333.24571428571426 408.86400000000015 334.2377142857143Q408.3120000000002 335.2297142857143 407.3600000000002 335.8057142857143Q406.4080000000002 336.3817142857143 405.17600000000016 336.3817142857143Q403.96000000000015 336.3817142857143 403.00000000000017 335.8057142857143Q402.0400000000002 335.2297142857143 401.48800000000017 334.2377142857143Q400.93600000000015 333.24571428571426 400.93600000000015 331.98171428571425ZM399.49600000000015 331.98171428571425Q399.49600000000015 333.19771428571426 399.9200000000002 334.2537142857143Q400.34400000000016 335.3097142857143 401.1120000000002 336.0857142857143Q401.88000000000017 336.86171428571424 402.9200000000002 337.3017142857143Q403.96000000000015 337.7417142857143 405.17600000000016 337.7417142857143Q406.4080000000002 337.7417142857143 407.44000000000017 337.3017142857143Q408.47200000000015 336.86171428571424 409.2400000000001 336.0857142857143Q410.00800000000015 335.3097142857143 410.43200000000013 334.2537142857143Q410.85600000000017 333.19771428571426 410.85600000000017 331.98171428571425Q410.85600000000017 330.7497142857143 410.43200000000013 329.7017142857143Q410.00800000000015 328.6537142857143 409.2400000000001 327.87771428571426Q408.47200000000015 327.10171428571425 407.44000000000017 326.66171428571425Q406.4080000000002 326.22171428571426 405.17600000000016 326.22171428571426Q403.96000000000015 326.22171428571426 402.9200000000002 326.66171428571425Q401.88000000000017 327.10171428571425 401.1120000000002 327.87771428571426Q400.34400000000016 328.6537142857143 399.9200000000002 329.7017142857143Q399.49600000000015 330.7497142857143 399.49600000000015 331.98171428571425ZM429.46400000000017 334.6217142857143 426.1360000000002 325.8217142857143 422.8720000000002 334.6217142857143 419.8960000000002 326.3817142857143H418.3760000000002L422.7760000000002 338.1417142857143L426.1360000000002 329.43771428571426L429.49600000000015 338.1417142857143L433.8960000000002 326.3817142857143H432.3760000000002Z" fill="#F6F1E8"/></svg>