<svg xmlns="http://www.w3.org/2000/svg" viewBox="12 30 172 88" width="516" height="264"><clipPath id="shell-in"><path d="M66.0 89 A46 44 0 0 1 158.0 89 Z"/></clipPath><path d="M60.0 92 A52 50 0 0 1 164.0 92 Z" fill="#4F5D45"/><g clip-path="url(#shell-in)"><path d="M63.5 74.0 Q112 69.0 160.5 74.0" fill="none" stroke="#F6F1E8" stroke-width="2.16" stroke-linecap="round"/><path d="M74.9 57.0 Q112 53.0 149.1 57.0" fill="none" stroke="#F6F1E8" stroke-width="2.16" stroke-linecap="round"/><path d="M80.0 92 Q81.0 70.1 87.0 48.1" fill="none" stroke="#F6F1E8" stroke-width="2.16" stroke-linecap="round"/><path d="M100.0 92 Q100.4 67.4 102.6 42.8" fill="none" stroke="#F6F1E8" stroke-width="2.16" stroke-linecap="round"/><path d="M124.0 92 Q123.6 67.4 121.4 42.8" fill="none" stroke="#F6F1E8" stroke-width="2.16" stroke-linecap="round"/><path d="M144.0 92 Q143.0 70.1 137.0 48.1" fill="none" stroke="#F6F1E8" stroke-width="2.16" stroke-linecap="round"/></g><path d="M56 92 L168 92" fill="none" stroke="#4F5D45" stroke-width="2.88" stroke-linecap="round" stroke-linejoin="round"/><path d="M66 71 C56 69 50 62 48 54 C46 46 40 42 33 43 C26 44 21 49 22 54 C23 58 28 60 34 59 C40 58 42 64 44 72 C47 82 54 88 62 88 Z" fill="#4F5D45"/><circle cx="32" cy="50.5" r="2.16" fill="#F6F1E8"/><path d="M73 92 C66 101 63 110 69 112.5 C75 115 81 106 86 92 Z" fill="#4F5D45"/><path d="M139 92 C141 104 147 113 154 111 C161 109 158 99 152 91 Z" fill="#4F5D45"/><path d="M163 87 C171 88 176 84 174 79 C172 75 167 77 168 81" fill="none" stroke="#4F5D45" stroke-width="2.88" stroke-linecap="round" stroke-linejoin="round"/></svg>